<svg width="32" height="20" viewBox="0 0 32 20" fill="none" xmlns="http://www.w3.org/2000/svg">
<path d="M30.8571 0H1.14286C0.510714 0 0 0.390976 0 0.874911V18.3731C0 18.8571 0.510714 19.248 1.14286 19.248H30.8571C31.4893 19.248 32 18.8571 32 18.3731V0.874911C32 0.390976 31.4893 0 30.8571 0ZM27.9714 2.97743L16.7036 9.68964C16.425 9.85642 16.0357 9.85642 15.7571 9.68964L4.48571 2.97743C4.44323 2.95233 4.41206 2.91768 4.39659 2.87833C4.38112 2.83899 4.38212 2.79693 4.39944 2.75804C4.41677 2.71915 4.44955 2.68539 4.49321 2.66148C4.53686 2.63758 4.58919 2.62473 4.64286 2.62473H27.8143C27.868 2.62473 27.9203 2.63758 27.9639 2.66148C28.0076 2.68539 28.0404 2.71915 28.0577 2.75804C28.075 2.79693 28.076 2.83899 28.0606 2.87833C28.0451 2.91768 28.0139 2.95233 27.9714 2.97743Z" fill="#FF9A62"/>
</svg>
