<svg width="29" height="29" viewBox="0 0 29 29" fill="none" xmlns="http://www.w3.org/2000/svg">
<path fill-rule="evenodd" clip-rule="evenodd" d="M3.41742 0.924684C3.73456 0.608019 4.11538 0.36237 4.53464 0.204015C4.9539 0.0456605 5.40202 -0.0217844 5.84932 0.0061502C6.29662 0.0340848 6.73287 0.156761 7.12917 0.366049C7.52547 0.575338 7.87276 0.866459 8.14804 1.22012L11.4015 5.39975C11.9978 6.16643 12.208 7.16512 11.9724 8.10762L10.981 12.077C10.9297 12.2826 10.9325 12.4979 10.989 12.7021C11.0455 12.9064 11.1539 13.0925 11.3036 13.2424L15.7569 17.6957C15.9071 17.8457 16.0935 17.9543 16.298 18.0108C16.5026 18.0674 16.7183 18.07 16.9242 18.0184L20.8917 17.0269C21.3568 16.9106 21.8423 16.9016 22.3114 17.0005C22.7805 17.0994 23.221 17.3037 23.5996 17.5979L27.7792 20.8495C29.2818 22.0186 29.4195 24.2389 28.0747 25.5819L26.2005 27.4561C24.8593 28.7973 22.8547 29.3864 20.986 28.7284C16.2031 27.0456 11.8605 24.3074 8.28035 20.7172C4.69032 17.1375 1.95221 12.7956 0.269104 8.01337C-0.387021 6.1465 0.202041 4.14006 1.54329 2.79881L3.41742 0.924684Z" fill="#FF9A62"/>
</svg>
