<svg width="32" height="20" viewBox="0 0 32 20" fill="none" xmlns="http://www.w3.org/2000/svg">
<path d="M30.8571 0.291016H1.14286C0.510714 0.291016 0 0.681992 0 1.16593V18.6642C0 19.1481 0.510714 19.5391 1.14286 19.5391H30.8571C31.4893 19.5391 32 19.1481 32 18.6642V1.16593C32 0.681992 31.4893 0.291016 30.8571 0.291016ZM27.9714 3.26845L16.7036 9.98066C16.425 10.1474 16.0357 10.1474 15.7571 9.98066L4.48571 3.26845C4.44322 3.24335 4.41206 3.20869 4.39659 3.16935C4.38112 3.13001 4.38212 3.08794 4.39944 3.04906C4.41677 3.01017 4.44955 2.9764 4.49321 2.9525C4.53686 2.92859 4.58919 2.91574 4.64286 2.91575H27.8143C27.868 2.91574 27.9203 2.92859 27.9639 2.9525C28.0076 2.9764 28.0404 3.01017 28.0577 3.04906C28.075 3.08794 28.076 3.13001 28.0606 3.16935C28.0451 3.20869 28.0139 3.24335 27.9714 3.26845Z" fill="#123340"/>
</svg>
