<svg width="29" height="29" viewBox="0 0 29 29" fill="none" xmlns="http://www.w3.org/2000/svg">
<path fill-rule="evenodd" clip-rule="evenodd" d="M3.41665 0.925843C3.73379 0.609179 4.11461 0.36353 4.53387 0.205175C4.95313 0.0468202 5.40126 -0.0206248 5.84856 0.00730987C6.29585 0.0352445 6.73211 0.157921 7.12841 0.367209C7.5247 0.576497 7.872 0.867619 8.14728 1.22128L11.4007 5.40091C11.997 6.16759 12.2073 7.16628 11.9717 8.10878L10.9802 12.0782C10.929 12.2837 10.9317 12.4991 10.9883 12.7033C11.0448 12.9075 11.1532 13.0936 11.3028 13.2436L15.7562 17.6969C15.9063 17.8469 16.0927 17.9554 16.2973 18.012C16.5018 18.0685 16.7175 18.0711 16.9234 18.0195L20.891 17.0281C21.3561 16.9118 21.8415 16.9028 22.3107 17.0017C22.7798 17.1006 23.2203 17.3049 23.5988 17.599L27.7785 20.8507C29.281 22.0197 29.4188 24.24 28.0739 25.5831L26.1998 27.4572C24.8585 28.7985 22.8539 29.3875 20.9852 28.7296C16.2024 27.0467 11.8598 24.3086 8.27959 20.7183C4.68955 17.1387 1.95144 12.7967 0.268341 8.01453C-0.387784 6.14766 0.201278 4.14122 1.54253 2.79997L3.41665 0.925843Z" fill="#123340"/>
</svg>
